<?xml version="1.0" encoding="utf-8"?>
<!-- Generator: Adobe Illustrator 27.0.1, SVG Export Plug-In . SVG Version: 6.00 Build 0)  -->
<svg version="1.1" id="Layer_1" xmlns="http://www.w3.org/2000/svg" xmlns:xlink="http://www.w3.org/1999/xlink" x="0px" y="0px"
	 viewBox="0 0 1800 1100" style="enable-background:new 0 0 1800 1100;" xml:space="preserve">
<style type="text/css">
	.st0{fill:#24282C;}
</style>
<g>
	<g>
		<g>
			<path class="st0" d="M858.73,102.63l-32.21,54.07l170.79,411.91c2.5,5.94,2.31,12.35,0,17.86h0l-84.16,199.85
				c-4.93,11.7-18.42,17.19-30.12,12.26c-5.76-2.43-10.01-6.93-12.26-12.26h0l-258.5-620.2L564,103.25
				c-7.72-10.11-5.78-24.57,4.33-32.29c4.18-3.19,9.1-4.73,13.98-4.72v-0.06h257.6c12.75,0,23.09,10.34,23.09,23.09
				C862.99,94.25,861.41,98.86,858.73,102.63L858.73,102.63z M1241.12,102.63l-32.21,54.07l170.79,411.91
				c2.5,5.94,2.31,12.35,0,17.86h0l-84.16,199.85c-4.93,11.7-18.42,17.19-30.12,12.26c-5.76-2.43-10.01-6.93-12.26-12.26h0
				l-258.5-620.2l-48.27-62.88c-7.72-10.11-5.78-24.57,4.33-32.29c4.18-3.19,9.1-4.73,13.98-4.72v-0.06h257.6
				c12.75,0,23.09,10.34,23.09,23.09C1245.38,94.25,1243.8,98.86,1241.12,102.63L1241.12,102.63z M1446.61,107.08l50.68,37.33
				l0.01,555.08c0,127.61,5.11,215.92-64.16,333.92c150.95-31.44,264.86-165.39,265.25-325.88l0.01-535.84L1718.47,95
				c3.19-12.31-4.21-24.89-16.52-28.08c-5.09-1.32-10.22-0.82-14.72,1.07l-0.02-0.05l-237.4-1.76
				c-11.75,4.95-17.26,18.49-12.32,30.23C1439.43,101.01,1442.67,104.64,1446.61,107.08L1446.61,107.08z"/>
			<path class="st0" d="M427.01,763.77l32.21-54.07L288.43,297.78c-2.5-5.94-2.31-12.35,0-17.86h0l84.16-199.85
				c4.93-11.7,18.42-17.19,30.12-12.26c5.76,2.43,10.01,6.93,12.26,12.26h0l258.5,620.2l48.27,62.88
				c7.72,10.11,5.78,24.57-4.33,32.29c-4.18,3.19-9.1,4.73-13.98,4.72v0.06h-257.6c-12.75,0-23.09-10.34-23.09-23.09
				C422.75,772.15,424.33,767.54,427.01,763.77L427.01,763.77z"/>
			<path class="st0" d="M192.56,448.21L86.82,700.61l-48.27,62.88c-7.72,10.11-5.78,24.57,4.33,32.29c4.18,3.19,9.1,4.73,13.98,4.72
				v0.06h251.32c12.75,0,23.09-10.34,23.09-23.09c0-4.98-1.58-9.59-4.26-13.36L192.56,448.21z"/>
		</g>
	</g>
</g>
</svg>
