<svg xmlns="http://www.w3.org/2000/svg" viewBox="0 0 1069.15 219.8"><defs><style>.cls-1{fill:#0389d1;}</style></defs><title>Color2-Horizontal_1Logo-Orvedo-</title><g id="Layer_2" data-name="Layer 2"><g id="Layer_1-2" data-name="Layer 1"><path class="cls-1" d="M.81,180.36c0,5.34,3.71,7.68,8.34,9.2L16,191.9c3.71,1.22,6.7,3.2,6.7,7.42,0,4.57-4.37,7.62-10.92,7.62A27.47,27.47,0,0,1,0,204.2l.41,2.33c2.59,1.58,7.26,2.59,11.68,2.59,8,0,13.37-4,13.37-10.06,0-5.54-3.71-8.08-8.39-9.6l-6.75-2.14c-3.82-1.21-6.71-3.1-6.71-7.21,0-4.42,3.55-7.42,8.94-7.42,4.12,0,8.54,1.12,11.08,2.74v-2.28a25,25,0,0,0-11.18-2.64c-7,0-11.64,3.9-11.64,9.85"/><path class="cls-1" d="M48.13,195.3c0-7,3.76-11.74,9.3-11.74s9.35,4.73,9.35,11.74S63,207,57.43,207s-9.3-4.67-9.3-11.69m-2.59,0c0,8.29,4.78,13.82,11.94,13.82s11.89-5.53,11.89-13.82-4.78-13.87-11.89-13.87S45.54,187,45.54,195.3"/><path class="cls-1" d="M92.61,175.18v6.76H87.93V184h4.68v24.6h2.44V184H104v-2.08H95.05v-6.41a4.65,4.65,0,0,1,5-4.92,8.06,8.06,0,0,1,4.27,1l-.36-2.13a10.32,10.32,0,0,0-4.72-1c-4,0-6.61,2.65-6.61,6.71"/><path class="cls-1" d="M126.06,174.67l-.3,7.27h-4.83V184h4.78v19.52c0,3.35,2.39,5.58,6,5.58a14.43,14.43,0,0,0,5.54-1l.4-2.08a14.81,14.81,0,0,1-5.28,1,3.83,3.83,0,0,1-4.17-3.91V184h9.09v-2.08h-9.09v-7.27Z"/><polygon class="cls-1" points="188.84 181.94 181.48 205.77 174.21 181.94 171.87 181.94 164.66 205.77 157.29 181.94 154.59 181.94 163.33 208.62 165.78 208.62 173.04 184.93 180.36 208.62 182.85 208.62 191.54 181.94 188.84 181.94"/><path class="cls-1" d="M212.17,201.55c0-3.91,2.69-6,7.68-6h8v.91c0,6.91-5.23,10.78-9.86,10.78-3.86,0-5.84-1.94-5.84-5.7m-.45-18.34v2.08a19,19,0,0,1,8.28-1.77c5.18,0,7.87,2.64,7.87,7.77v2.44h-8.43c-6.35,0-9.86,2.79-9.86,8,0,4.87,2.59,7.41,7.67,7.41a11.24,11.24,0,0,0,10.68-7.36l.25,6.86h2.13V190.78c0-6.15-3.35-9.35-9.91-9.35a19.42,19.42,0,0,0-8.68,1.78"/><path class="cls-1" d="M267.32,181.43c-5.89,0-9.55,3.1-11.18,8l-.25-7.52h-2.13v26.68h2.44V195.4c0-6.86,4.32-11.43,10.77-11.43h2.13v-2.54Z"/><path class="cls-1" d="M297.58,183.52c4.67,0,7.87,4,8,10.21H288.69c.35-6.2,3.81-10.21,8.89-10.21M286.09,194.9c0,9.24,4.37,14.22,12.4,14.22a19.5,19.5,0,0,0,8.13-1.72l.36-2.19a17.72,17.72,0,0,1-8,1.83c-6.6,0-10.16-4-10.37-11.48H308v-.92c0-7.93-4.12-13.21-10.32-13.21-7,0-11.59,5.39-11.59,13.47"/><path class="cls-1" d="M358.59,201.55c0-3.91,2.7-6,7.68-6h8v.91c0,6.91-5.24,10.78-9.86,10.78-3.86,0-5.85-1.94-5.85-5.7m-.45-18.34v2.08a19.09,19.09,0,0,1,8.28-1.77c5.18,0,7.88,2.64,7.88,7.77v2.44h-8.44c-6.35,0-9.86,2.79-9.86,8,0,4.87,2.59,7.41,7.67,7.41a11.24,11.24,0,0,0,10.68-7.36l.25,6.86h2.14V190.78c0-6.15-3.36-9.35-9.91-9.35a19.44,19.44,0,0,0-8.69,1.78"/><path class="cls-1" d="M402.52,188.14l-.21-6.2h-2.13v26.68h2.44v-15.2c0-5.94,3.75-9.86,9.44-9.86,4.63,0,7,3,7,8.8v16.26h2.44V191.8c0-6.81-2.95-10.37-8.64-10.37-5.39,0-8.79,2.59-10.36,6.71"/><path class="cls-1" d="M446,195.35c0-7.06,3.77-11.79,9.35-11.79s9.35,4.73,9.35,11.74S461,207,455.37,207,446,202.37,446,195.35M464.72,169v19.51a10,10,0,0,0-10.11-7.06c-6.71,0-11.13,5.54-11.13,13.92s4.42,13.77,11.13,13.77c5.44,0,8.64-2.89,10.16-7.21l.26,6.71h2.13V169Z"/><polygon class="cls-1" points="552.16 171.01 537.73 199.78 523.3 171.01 520.05 171.01 520.05 208.62 522.69 208.62 522.59 174.72 536.97 203.38 538.49 203.38 552.87 174.72 552.77 208.62 555.41 208.62 555.41 171.01 552.16 171.01"/><path class="cls-1" d="M589.92,183.52c4.67,0,7.87,4,8,10.21H581c.36-6.2,3.82-10.21,8.9-10.21M578.43,194.9c0,9.24,4.37,14.22,12.4,14.22A19.5,19.5,0,0,0,599,207.4l.36-2.19a17.72,17.72,0,0,1-8,1.83c-6.61,0-10.16-4-10.37-11.48h19.37v-.92c0-7.93-4.12-13.21-10.32-13.21-7,0-11.59,5.39-11.59,13.47"/><path class="cls-1" d="M623.26,195.35c0-7.06,3.77-11.79,9.35-11.79S642,188.29,642,195.3,638.2,207,632.61,207s-9.35-4.62-9.35-11.64M642,169v19.51a10.05,10.05,0,0,0-10.12-7.06c-6.71,0-11.13,5.54-11.13,13.92s4.42,13.77,11.13,13.77c5.44,0,8.64-2.89,10.17-7.21l.25,6.71h2.13V169Z"/><path class="cls-1" d="M668.15,208.62h2.44V181.94h-2.44Zm0-32.88h2.53V169H668.1Z"/><path class="cls-1" d="M694.75,201.55c0-3.91,2.7-6,7.67-6h8v.91c0,6.91-5.23,10.78-9.86,10.78-3.86,0-5.84-1.94-5.84-5.7m-.45-18.34v2.08a19,19,0,0,1,8.28-1.77c5.18,0,7.87,2.64,7.87,7.77v2.44H702c-6.35,0-9.86,2.79-9.86,8,0,4.87,2.59,7.41,7.67,7.41a11.22,11.22,0,0,0,10.67-7.36l.26,6.86h2.13V190.78c0-6.15-3.35-9.35-9.91-9.35a19.39,19.39,0,0,0-8.68,1.78"/><path class="cls-1" d="M763.49,189.76c0,11.64,6.1,19.36,15.3,19.36,4.06,0,8.59-1.21,11.28-3.05v-2.23a20.51,20.51,0,0,1-10.87,3.1c-7.78,0-13-6.91-13-17.23s5.18-17,12.9-17a20.37,20.37,0,0,1,10.42,2.84v-2.18a21.17,21.17,0,0,0-10.77-2.84c-9.15,0-15.3,7.72-15.3,19.25"/><path class="cls-1" d="M812.39,195.3c0-7,3.75-11.74,9.3-11.74S831,188.29,831,195.3,827.27,207,821.69,207s-9.3-4.67-9.3-11.69m-2.59,0c0,8.29,4.77,13.82,11.94,13.82s11.89-5.53,11.89-13.82-4.78-13.87-11.89-13.87S809.8,187,809.8,195.3"/><path class="cls-1" d="M875.76,188c-.81-4.32-3.45-6.61-7.82-6.61-5.13,0-8.33,2.54-9.86,6.61l-.2-6.1h-2.13v26.68h2.43v-15.2c0-5.94,3.56-9.86,9-9.86,4.26,0,6.5,2.85,6.5,8.29v16.77h2.44v-15.2c0-5.94,3.61-9.86,8.95-9.86,4.26,0,6.55,2.85,6.55,8.29v16.77H894V191.29c0-6.46-2.8-9.86-8.18-9.86S877.29,184,875.76,188"/><path class="cls-1" d="M919.82,195.3c0-7,3.71-11.74,9.35-11.74s9.3,4.73,9.3,11.79S934.76,207,929.17,207s-9.35-4.67-9.35-11.69m-.05-6.76-.21-6.6h-2.18V219.8h2.44V202.27a10,10,0,0,0,10.06,6.85c6.71,0,11.18-5.53,11.18-13.77s-4.47-13.92-11.18-13.92a10,10,0,0,0-10.11,7.11"/><path class="cls-1" d="M963.64,201.55c0-3.91,2.68-6,7.66-6h8v.91c0,6.91-5.23,10.78-9.85,10.78-3.86,0-5.84-1.94-5.84-5.7m-.46-18.34v2.08a19.09,19.09,0,0,1,8.28-1.77c5.18,0,7.87,2.64,7.87,7.77v2.44H970.9c-6.36,0-9.85,2.79-9.85,8,0,4.87,2.59,7.41,7.66,7.41a11.24,11.24,0,0,0,10.68-7.36l.25,6.86h2.14V190.78c0-6.15-3.36-9.35-9.91-9.35a19.44,19.44,0,0,0-8.69,1.78"/><path class="cls-1" d="M1007.55,188.14l-.2-6.2h-2.13v26.68h2.43v-15.2c0-5.94,3.76-9.86,9.46-9.86,4.62,0,7,3,7,8.8v16.26h2.45V191.8c0-6.81-2.95-10.37-8.64-10.37-5.39,0-8.8,2.59-10.37,6.71"/><polygon class="cls-1" points="1066.51 181.94 1057.87 205.92 1049.23 181.94 1046.59 181.94 1056.65 208.52 1052.33 219.8 1054.82 219.8 1069.15 181.94 1066.51 181.94"/><path class="cls-1" d="M320.68,70.93c0-42.55,26-70.93,64.91-70.93,39.12,0,64.9,28.38,64.9,70.93s-25.78,70.94-64.9,70.94C346.65,141.87,320.68,113.49,320.68,70.93Zm90.86,0c0-23.51-10.42-39.2-26-39.2s-26,15.68-26,39.2,10.42,39.21,26,39.21S411.54,94.45,411.54,70.93Z"/><path class="cls-1" d="M537.32,140,517,93H498.38V140H460.72V1.86h57.4c30.35,0,50.46,18.67,50.46,46.48,0,14.19-6,25.77-16.64,33.61L579.54,140ZM498.38,63.1h17.55c8.42,0,14.09-6,14.09-14.76s-5.67-14.75-14.09-14.75H498.38Z"/><path class="cls-1" d="M566.94,1.86h40.23l23.58,89.79L654.16,1.86h40.22L648.13,140H613.38Z"/><path class="cls-1" d="M804.6,108.26V140H705V1.85h98.55L798,33.58h-55.4v20.9h52.3V86.21h-52.3v22h62Z"/><path class="cls-1" d="M931.3,70.56c0,41.63-26.69,69.45-66.72,69.45H815.21V1.86h49.37C904.6,1.86,931.3,29.3,931.3,70.56Zm-38.76,0c0-22.22-11.7-37-29.25-37H852.86v74.67h10.43C880.84,108.26,892.54,93.15,892.54,70.56Z"/><path class="cls-1" d="M939.34,70.93c0-42.55,26-70.93,64.91-70.93,39.12,0,64.9,28.38,64.9,70.93s-25.78,70.94-64.9,70.94C965.3,141.87,939.34,113.49,939.34,70.93Zm90.86,0c0-23.51-10.42-39.2-26-39.2s-26,15.68-26,39.2,10.42,39.21,26,39.21S1030.2,94.45,1030.2,70.93Z"/><path class="cls-1" d="M134.73,82.24c-.54.05-1.06.1-1.59.17l-.9.14c-.48.07-1,.14-1.42.23-.32,0-.63.12-.95.19s-.9.19-1.35.3-.63.15-.93.24c-.45.11-.89.25-1.33.37l-.9.28c-.45.14-.9.3-1.34.47l-.82.29-1.45.59-.67.28A41.88,41.88,0,0,0,117,87.86c-.21.11-.41.25-.61.37-.45.27-.89.53-1.32.82q-.36.23-.72.48c-.39.26-.78.53-1.16.81l-.73.54c-.36.28-.73.55-1.08.85s-.48.38-.71.58l-1,.91-.66.6c-.36.32-.69.65-1,1l-.61.59c-.37.38-.73.77-1.08,1.16l-.46.5c-.51.57-1,1.15-1.47,1.75h0a45,45,0,0,1-10.78,10.11l-.27.17c-.58.38-1.17.74-1.76,1.1-.13.06-.24.14-.36.21-.6.34-1.19.66-1.8,1l-.35.18c-.68.34-1.36.67-2.06,1l-.11.06a45.72,45.72,0,0,1-4.58,1.71l-.58.17c-.56.17-1.14.32-1.72.46l-.79.2c-.51.12-1,.22-1.55.33l-.88.16c-.51.09-1,.16-1.55.24-.3,0-.6.09-.89.11-.55.07-1.12.11-1.68.16l-.78.05c-.82,0-1.65.08-2.48.08C44.88,116.26,25,96,25,71S44.88,25.68,69.37,25.68c.82,0,1.64,0,2.46.08l.78.06c.56,0,1.11.08,1.65.14l.9.12c.5.06,1,.14,1.5.22.31,0,.6.1.91.16.5.09,1,.2,1.49.3l.85.2c.51.13,1,.27,1.53.42l.74.22c.59.18,1.17.37,1.75.58l.48.17a44.21,44.21,0,0,1,4.42,1.9l.15.08c.66.33,1.3.68,1.94,1,.12.06.24.14.36.21.57.33,1.13.66,1.68,1l.39.25c.54.37,1.09.74,1.61,1.12l.33.24c.57.42,1.12.84,1.66,1.29a1.39,1.39,0,0,1,.19.15A45.15,45.15,0,0,1,104,42.59h0a44.4,44.4,0,0,0,6.71,7l.07.06c.57.47,1.15.94,1.75,1.39l.26.19q.81.6,1.65,1.17c.11.08.23.15.33.23l1.68,1.06c.12.06.22.13.34.2.62.36,1.24.71,1.88,1l.17.09a42.88,42.88,0,0,0,4.37,2,3,3,0,0,1,.36.13c.6.23,1.21.44,1.82.64.23.08.47.14.7.21l1.55.45.82.21q.73.18,1.47.33l.89.18c.5.1,1,.17,1.5.25l.87.13c.55.07,1.09.13,1.63.17l.77.08c.8.06,1.61.11,2.42.12A70.71,70.71,0,0,0,95.43,5.26,68,68,0,0,0,69.42.1C31.08.1,0,31.83,0,71s31.08,70.89,69.42,70.89a68,68,0,0,0,26-5.17A70.69,70.69,0,0,0,138,82.09c-.8,0-1.6.06-2.39.11A7.16,7.16,0,0,0,134.73,82.24Z"/><path class="cls-1" d="M206.47.07a68.19,68.19,0,0,0-26,5.16A70.71,70.71,0,0,0,137.9,59.84c.8,0,1.6,0,2.4-.1l.78-.08c.53,0,1.06-.09,1.58-.17.31,0,.6-.08.91-.13.47-.08,1-.14,1.42-.23l.94-.19c.46-.1.91-.19,1.35-.3l.94-.24,1.32-.38c.31-.08.6-.18.9-.27.46-.14.91-.31,1.34-.47l.82-.29c.49-.19,1-.4,1.45-.6l.67-.27a43,43,0,0,0,4.06-2.07l.61-.37c.45-.27.9-.54,1.33-.82l.71-.48c.39-.27.78-.53,1.17-.81l.72-.54,1.09-.85.7-.58c.36-.3.7-.6,1-.91l.67-.6c.35-.32.69-.66,1-1l.6-.59c.37-.38.73-.77,1.09-1.17l.45-.49c.51-.57,1-1.15,1.47-1.76h0A45.22,45.22,0,0,1,182.25,33l.26-.17c.58-.38,1.18-.75,1.77-1.1l.36-.21c.59-.34,1.18-.67,1.79-1,.12-.06.23-.13.35-.18.68-.35,1.37-.67,2.06-1l.12-.05a45.54,45.54,0,0,1,4.57-1.71l.59-.17c.56-.17,1.13-.32,1.71-.47l.79-.19c.52-.11,1-.23,1.56-.33.29-.06.58-.12.87-.16.52-.09,1-.17,1.56-.24.29,0,.59-.09.89-.12.55-.06,1.11-.1,1.67-.15.26,0,.52-.05.79-.06.82,0,1.64-.07,2.47-.07,24.5,0,44.36,20.28,44.36,45.28s-19.86,45.29-44.36,45.29c-.82,0-1.64,0-2.46-.07l-.78-.06-1.65-.14-.89-.12-1.51-.22-.91-.16-1.48-.31-.85-.2c-.52-.12-1-.26-1.54-.42l-.74-.21c-.58-.19-1.16-.38-1.74-.59-.17,0-.33-.1-.48-.16a41.35,41.35,0,0,1-4.43-1.91l-.15-.07c-.66-.34-1.29-.68-1.93-1l-.37-.21c-.57-.33-1.12-.67-1.67-1l-.39-.26q-.83-.54-1.62-1.11a4,4,0,0,0-.33-.24c-.56-.42-1.11-.84-1.66-1.29l-.19-.15a45.61,45.61,0,0,1-6.81-6.94h0a44,44,0,0,0-6.71-7s-.05,0-.06-.06c-.58-.48-1.16-.94-1.76-1.39-.08-.07-.17-.12-.26-.19-.54-.4-1.08-.79-1.65-1.17l-.33-.23c-.55-.37-1.11-.72-1.68-1.06l-.33-.2c-.62-.36-1.25-.72-1.89-1l-.17-.1a44.05,44.05,0,0,0-4.37-2l-.36-.13c-.6-.23-1.2-.44-1.82-.64-.23-.08-.47-.15-.7-.21-.51-.15-1-.31-1.54-.45l-.83-.21c-.49-.12-1-.23-1.47-.33-.29-.06-.59-.13-.89-.18-.49-.1-1-.18-1.49-.25l-.88-.14L141,82.23l-.76-.07c-.8-.06-1.61-.12-2.42-.14a70.68,70.68,0,0,0,42.55,54.61,67.92,67.92,0,0,0,26,5.17c38.33,0,69.41-31.74,69.41-70.88S244.81.07,206.47.07Z"/><path class="cls-1" d="M263.46,141.84a10.22,10.22,0,1,1,10-10.22A10.12,10.12,0,0,1,263.46,141.84Zm0-18.75a8.53,8.53,0,1,0,8.36,8.53A8.39,8.39,0,0,0,263.46,123.09Zm2.69,14.41-3-4.62h-1.84v4.62h-1.74V125.78h4.67a3.73,3.73,0,0,1,3.87,3.57,3.4,3.4,0,0,1-2.93,3.47l3.07,4.67h-2.12Zm-1.89-10.22h-2.93v4.05h2.93a2,2,0,1,0,0-4.05Z"/></g></g></svg>